<mxfile host="app.diagrams.net" modified="2021-01-20T07:33:49.918Z" agent="5.0 (Windows NT 10.0; Win64; x64) AppleWebKit/537.36 (KHTML, like Gecko) Chrome/87.0.4280.141 Safari/537.36" etag="0Z-OaL4eEO93jEVpCyNX" version="14.2.5" type="github">
  <diagram id="nAfkXNP0lltyVbMcIHqa" name="第 1 页">
    <mxGraphModel dx="581" dy="521" grid="1" gridSize="10" guides="1" tooltips="1" connect="1" arrows="1" fold="1" page="1" pageScale="1" pageWidth="827" pageHeight="1169" math="0" shadow="0">
      <root>
        <mxCell id="0" />
        <mxCell id="1" parent="0" />
        <mxCell id="K0LW-r4lC7Ter3zlu_6B-3" style="edgeStyle=orthogonalEdgeStyle;rounded=0;orthogonalLoop=1;jettySize=auto;html=1;exitX=0.5;exitY=1;exitDx=0;exitDy=0;exitPerimeter=0;" edge="1" parent="1" source="K0LW-r4lC7Ter3zlu_6B-1" target="K0LW-r4lC7Ter3zlu_6B-2">
          <mxGeometry relative="1" as="geometry" />
        </mxCell>
        <mxCell id="K0LW-r4lC7Ter3zlu_6B-1" value="" style="verticalLabelPosition=bottom;verticalAlign=top;html=1;shape=mxgraph.flowchart.on-page_reference;" vertex="1" parent="1">
          <mxGeometry x="150" y="410" width="60" height="60" as="geometry" />
        </mxCell>
        <mxCell id="K0LW-r4lC7Ter3zlu_6B-2" value="" style="rounded=1;whiteSpace=wrap;html=1;absoluteArcSize=1;arcSize=14;strokeWidth=2;" vertex="1" parent="1">
          <mxGeometry x="130" y="550" width="100" height="100" as="geometry" />
        </mxCell>
      </root>
    </mxGraphModel>
  </diagram>
</mxfile>
